<!-- Neon brain areas SVG at public root to fix 404 path issues. -->
<svg xmlns="http://www.w3.org/2000/svg" viewBox="0 0 256 256" fill="none">
  <defs>
    <linearGradient id="grad" x1="0" y1="0" x2="1" y2="1">
      <stop offset="0" stop-color="#7C3AED"/>
      <stop offset="0.5" stop-color="#22D3EE"/>
      <stop offset="1" stop-color="#34D399"/>
    </linearGradient>
    <filter id="glow" x="-50%" y="-50%" width="200%" height="200%">
      <feDropShadow dx="0" dy="0" stdDeviation="4" flood-color="#7C3AED" flood-opacity="0.35"/>
      <feDropShadow dx="0" dy="0" stdDeviation="8" flood-color="#22D3EE" flood-opacity="0.25"/>
    </filter>
  </defs>

  <path d="M76 54c30-22 74-20 102 6 18 17 27 44 21 69-5 20-18 35-36 43-7 3-10 9-10 17v6c0 6-5 11-11 11H88c-6 0-11-5-11-11v-8c0-6-4-11-10-13-27-11-43-38-39-67 3-19 16-38 33-47z" stroke="url(#grad)" stroke-width="6" filter="url(#glow)"/>
  <g stroke="url(#grad)" stroke-width="4" opacity="0.9">
    <path d="M94 86c16-12 40-11 55 3"/>
    <path d="M88 110c22-10 52-8 72 6"/>
    <path d="M84 136c25-8 61-6 86 8"/>
  </g>
  <g fill="url(#grad)">
    <circle cx="108" cy="92" r="4"/>
    <circle cx="150" cy="98" r="4"/>
    <circle cx="118" cy="124" r="4"/>
    <circle cx="164" cy="130" r="4"/>
  </g>
</svg>
